# xmcd
#
# Track frame offsets:
# 150
# 14637
# 27792
# 40375
# 53779
# 65943
# 82343
# 95729
# 107044
# 123046
# 136627
# 151114
# 159595
# 173119
# 185543
# 197160
# 208891
# 219918
# 234049
# 246337
# 259706
#
# Disc length: 3635 seconds
#
#
# Revision: 2
# Processed by: cddbd v1.5.1PL0 Copyright (c) Steve Scherf et al.
# Submitted via: FreeRIP 2.941 
#
DISCID=270e3115
DTITLE=Slim Dusty - The Early Years (1947 - 1969) 
DYEAR=1996
DGENRE=Country
TTITLE0=When The Rain Tumbl;es Down In July
TTITLE1=My Aussie Home
TTITLE2=Sat'day In The Saddle
TTITLE3=Springtime On The Range
TTITLE4=The Grandest Homestead Of All
TTITLE5=When The Sun Goes Down Outback
TTITLE6=The Rain Still Tumbles Down
TTITLE7=Our Wedding Waltz
TTITLE8=King Bundawaal
TTITLE9=Pub With No Beer
TTITLE10=Saddle Boy
TTITLE11=Along The Road To Gundagai
TTITLE12=By A Fir Of Gidgee Coal
TTITLE13=Song Of Australia
TTITLE14=Middleton's Rouseabout
TTITLE15=Down The Dusty Road To Home
TTITLE16=Campfire Yarn
TTITLE17=The Old Lantern Waltz
TTITLE18=Ghosts Of The Golden Mile
TTITLE19=Steppin' Round Australia
TTITLE20=Cattle Camp Crooner
EXTD=
EXTT0=
EXTT1=
EXTT2=
EXTT3=
EXTT4=
EXTT5=
EXTT6=
EXTT7=
EXTT8=
EXTT9=
EXTT10=
EXTT11=
EXTT12=
EXTT13=
EXTT14=
EXTT15=
EXTT16=
EXTT17=
EXTT18=
EXTT19=
EXTT20=
PLAYORDER=
